<mxfile host="app.diagrams.net" modified="2024-03-23T23:44:13.793Z" agent="Mozilla/5.0 (Macintosh; Intel Mac OS X 10_15_7) AppleWebKit/537.36 (KHTML, like Gecko) Chrome/123.0.0.0 Safari/537.36" etag="5_xf0MihqRDQOOJQDdqM" version="24.1.0" type="github">
  <diagram name="Grants" id="evUG6YISS2im7E91H2Ip">
    <mxGraphModel dx="912" dy="661" grid="1" gridSize="10" guides="1" tooltips="1" connect="1" arrows="1" fold="1" page="1" pageScale="1" pageWidth="827" pageHeight="1169" math="0" shadow="0">
      <root>
        <mxCell id="0" />
        <mxCell id="1" parent="0" />
        <mxCell id="SocFAzCtIRODeD0ZfF7--8" value="" style="group" vertex="1" connectable="0" parent="1">
          <mxGeometry x="570" y="30" width="180" height="250" as="geometry" />
        </mxCell>
        <mxCell id="SocFAzCtIRODeD0ZfF7--9" value="" style="rounded=0;whiteSpace=wrap;html=1;" vertex="1" parent="SocFAzCtIRODeD0ZfF7--8">
          <mxGeometry width="170" height="250" as="geometry" />
        </mxCell>
        <mxCell id="SocFAzCtIRODeD0ZfF7--10" value="Browser" style="text;html=1;align=center;verticalAlign=middle;resizable=0;points=[];autosize=1;strokeColor=none;fillColor=none;" vertex="1" parent="SocFAzCtIRODeD0ZfF7--8">
          <mxGeometry x="110" width="70" height="30" as="geometry" />
        </mxCell>
        <mxCell id="SocFAzCtIRODeD0ZfF7--7" value="" style="group" vertex="1" connectable="0" parent="1">
          <mxGeometry x="390" y="30" width="180" height="250" as="geometry" />
        </mxCell>
        <mxCell id="SocFAzCtIRODeD0ZfF7--5" value="" style="rounded=0;whiteSpace=wrap;html=1;" vertex="1" parent="SocFAzCtIRODeD0ZfF7--7">
          <mxGeometry width="170" height="250" as="geometry" />
        </mxCell>
        <mxCell id="SocFAzCtIRODeD0ZfF7--6" value="Browser" style="text;html=1;align=center;verticalAlign=middle;resizable=0;points=[];autosize=1;strokeColor=none;fillColor=none;" vertex="1" parent="SocFAzCtIRODeD0ZfF7--7">
          <mxGeometry x="110" width="70" height="30" as="geometry" />
        </mxCell>
        <mxCell id="dD89SNBYdo-dca2-tYXd-7" style="edgeStyle=orthogonalEdgeStyle;rounded=0;orthogonalLoop=1;jettySize=auto;html=1;exitX=0;exitY=0.5;exitDx=0;exitDy=0;entryX=1;entryY=0.5;entryDx=0;entryDy=0;shadow=0;flowAnimation=0;startArrow=classic;startFill=1;" parent="1" source="dD89SNBYdo-dca2-tYXd-2" target="dD89SNBYdo-dca2-tYXd-1" edge="1">
          <mxGeometry relative="1" as="geometry" />
        </mxCell>
        <mxCell id="dD89SNBYdo-dca2-tYXd-2" value="Nostrize Extension" style="whiteSpace=wrap;html=1;" parent="1" vertex="1">
          <mxGeometry x="410" y="190" width="120" height="60" as="geometry" />
        </mxCell>
        <mxCell id="dD89SNBYdo-dca2-tYXd-4" style="edgeStyle=orthogonalEdgeStyle;rounded=0;orthogonalLoop=1;jettySize=auto;html=1;entryX=0.5;entryY=0;entryDx=0;entryDy=0;" parent="1" source="dD89SNBYdo-dca2-tYXd-3" target="dD89SNBYdo-dca2-tYXd-5" edge="1">
          <mxGeometry relative="1" as="geometry">
            <mxPoint x="200" y="520" as="targetPoint" />
          </mxGeometry>
        </mxCell>
        <mxCell id="dD89SNBYdo-dca2-tYXd-6" style="edgeStyle=orthogonalEdgeStyle;rounded=0;orthogonalLoop=1;jettySize=auto;html=1;exitX=1;exitY=0.5;exitDx=0;exitDy=0;" parent="1" source="dD89SNBYdo-dca2-tYXd-3" target="dD89SNBYdo-dca2-tYXd-2" edge="1">
          <mxGeometry relative="1" as="geometry" />
        </mxCell>
        <mxCell id="SocFAzCtIRODeD0ZfF7--4" style="edgeStyle=orthogonalEdgeStyle;rounded=0;orthogonalLoop=1;jettySize=auto;html=1;exitX=1;exitY=0.5;exitDx=0;exitDy=0;entryX=0.5;entryY=1;entryDx=0;entryDy=0;" edge="1" parent="1" source="dD89SNBYdo-dca2-tYXd-3" target="dD89SNBYdo-dca2-tYXd-19">
          <mxGeometry relative="1" as="geometry" />
        </mxCell>
        <mxCell id="dD89SNBYdo-dca2-tYXd-3" value="Supported web sites" style="whiteSpace=wrap;html=1;aspect=fixed;" parent="1" vertex="1">
          <mxGeometry x="320" y="290" width="80" height="80" as="geometry" />
        </mxCell>
        <mxCell id="dD89SNBYdo-dca2-tYXd-13" style="edgeStyle=orthogonalEdgeStyle;rounded=0;orthogonalLoop=1;jettySize=auto;html=1;exitX=0.5;exitY=1;exitDx=0;exitDy=0;" parent="1" source="dD89SNBYdo-dca2-tYXd-5" target="dD89SNBYdo-dca2-tYXd-14" edge="1">
          <mxGeometry relative="1" as="geometry">
            <mxPoint x="160" y="530" as="targetPoint" />
          </mxGeometry>
        </mxCell>
        <mxCell id="dD89SNBYdo-dca2-tYXd-17" style="edgeStyle=orthogonalEdgeStyle;rounded=0;orthogonalLoop=1;jettySize=auto;html=1;exitX=0.5;exitY=1;exitDx=0;exitDy=0;entryX=0.5;entryY=0;entryDx=0;entryDy=0;" parent="1" source="dD89SNBYdo-dca2-tYXd-5" target="dD89SNBYdo-dca2-tYXd-15" edge="1">
          <mxGeometry relative="1" as="geometry" />
        </mxCell>
        <mxCell id="dD89SNBYdo-dca2-tYXd-18" style="edgeStyle=orthogonalEdgeStyle;rounded=0;orthogonalLoop=1;jettySize=auto;html=1;exitX=0.5;exitY=1;exitDx=0;exitDy=0;entryX=0.5;entryY=0;entryDx=0;entryDy=0;" parent="1" source="dD89SNBYdo-dca2-tYXd-5" target="dD89SNBYdo-dca2-tYXd-16" edge="1">
          <mxGeometry relative="1" as="geometry" />
        </mxCell>
        <mxCell id="dD89SNBYdo-dca2-tYXd-5" value="Github" style="whiteSpace=wrap;html=1;" parent="1" vertex="1">
          <mxGeometry x="170" y="420" width="120" height="60" as="geometry" />
        </mxCell>
        <mxCell id="dD89SNBYdo-dca2-tYXd-10" value="Alice" style="shape=umlActor;verticalLabelPosition=bottom;verticalAlign=top;html=1;outlineConnect=0;" parent="1" vertex="1">
          <mxGeometry x="450" y="70" width="30" height="60" as="geometry" />
        </mxCell>
        <mxCell id="dD89SNBYdo-dca2-tYXd-11" value="Bob" style="shape=umlActor;verticalLabelPosition=bottom;verticalAlign=top;html=1;outlineConnect=0;" parent="1" vertex="1">
          <mxGeometry x="630" y="70" width="30" height="60" as="geometry" />
        </mxCell>
        <mxCell id="dD89SNBYdo-dca2-tYXd-14" value="issues" style="rounded=1;whiteSpace=wrap;html=1;" parent="1" vertex="1">
          <mxGeometry x="90" y="555" width="80" height="35" as="geometry" />
        </mxCell>
        <mxCell id="dD89SNBYdo-dca2-tYXd-15" value="user page" style="rounded=1;whiteSpace=wrap;html=1;" parent="1" vertex="1">
          <mxGeometry x="190" y="555" width="80" height="35" as="geometry" />
        </mxCell>
        <mxCell id="dD89SNBYdo-dca2-tYXd-16" value="repo page" style="rounded=1;whiteSpace=wrap;html=1;" parent="1" vertex="1">
          <mxGeometry x="290" y="555" width="80" height="35" as="geometry" />
        </mxCell>
        <mxCell id="dD89SNBYdo-dca2-tYXd-20" style="edgeStyle=orthogonalEdgeStyle;rounded=0;orthogonalLoop=1;jettySize=auto;html=1;exitX=0.5;exitY=0;exitDx=0;exitDy=0;entryX=1;entryY=0.5;entryDx=0;entryDy=0;startArrow=classic;startFill=1;" parent="1" source="dD89SNBYdo-dca2-tYXd-19" target="dD89SNBYdo-dca2-tYXd-1" edge="1">
          <mxGeometry relative="1" as="geometry" />
        </mxCell>
        <mxCell id="dD89SNBYdo-dca2-tYXd-19" value="Nostrize Extension" style="whiteSpace=wrap;html=1;" parent="1" vertex="1">
          <mxGeometry x="580" y="190" width="120" height="60" as="geometry" />
        </mxCell>
        <mxCell id="SocFAzCtIRODeD0ZfF7--1" value="...." style="text;html=1;align=center;verticalAlign=middle;resizable=0;points=[];autosize=1;strokeColor=none;fillColor=none;" vertex="1" parent="1">
          <mxGeometry x="160" y="554.5" width="40" height="30" as="geometry" />
        </mxCell>
        <mxCell id="SocFAzCtIRODeD0ZfF7--2" value="...." style="text;html=1;align=center;verticalAlign=middle;resizable=0;points=[];autosize=1;strokeColor=none;fillColor=none;" vertex="1" parent="1">
          <mxGeometry x="260" y="555" width="40" height="30" as="geometry" />
        </mxCell>
        <mxCell id="SocFAzCtIRODeD0ZfF7--3" value="...." style="text;html=1;align=center;verticalAlign=middle;resizable=0;points=[];autosize=1;strokeColor=none;fillColor=none;" vertex="1" parent="1">
          <mxGeometry x="290" y="435" width="40" height="30" as="geometry" />
        </mxCell>
        <mxCell id="SocFAzCtIRODeD0ZfF7--13" value="" style="group" vertex="1" connectable="0" parent="1">
          <mxGeometry x="80" y="10" width="140" height="190" as="geometry" />
        </mxCell>
        <mxCell id="dD89SNBYdo-dca2-tYXd-1" value="Nosterize Backend&lt;br&gt;(Nostr Relay)" style="rounded=0;whiteSpace=wrap;html=1;" parent="SocFAzCtIRODeD0ZfF7--13" vertex="1">
          <mxGeometry y="122.94117647058823" width="140" height="67.05882352941177" as="geometry" />
        </mxCell>
        <mxCell id="dD89SNBYdo-dca2-tYXd-9" style="edgeStyle=orthogonalEdgeStyle;rounded=0;orthogonalLoop=1;jettySize=auto;html=1;exitX=0.5;exitY=1;exitDx=0;exitDy=0;exitPerimeter=0;entryX=0.5;entryY=0;entryDx=0;entryDy=0;" parent="SocFAzCtIRODeD0ZfF7--13" source="dD89SNBYdo-dca2-tYXd-8" target="dD89SNBYdo-dca2-tYXd-1" edge="1">
          <mxGeometry relative="1" as="geometry" />
        </mxCell>
        <mxCell id="dD89SNBYdo-dca2-tYXd-8" value="Events DB" style="shape=cylinder3;whiteSpace=wrap;html=1;boundedLbl=1;backgroundOutline=1;size=15;" parent="SocFAzCtIRODeD0ZfF7--13" vertex="1">
          <mxGeometry x="35" width="70" height="89.41176470588235" as="geometry" />
        </mxCell>
        <mxCell id="SocFAzCtIRODeD0ZfF7--14" value="&lt;h1 style=&quot;margin-top: 0px;&quot;&gt;Grant/Reward Scenario&lt;/h1&gt;&lt;p&gt;&lt;/p&gt;&lt;ol&gt;&lt;li&gt;Alice founds a bug in the github repo dhalsim/imgui-dom that she needs to fix in order to continue her task&lt;/li&gt;&lt;li&gt;She creates an issue in the repo&lt;/li&gt;&lt;li&gt;Issue description has instructions on how to accept the grant/reward&lt;/li&gt;&lt;li&gt;Bob reads the issue and decides to work on it&lt;/li&gt;&lt;li&gt;He installs the Nostrize browser extension&lt;/li&gt;&lt;li&gt;He forks the repo into his own github branch&lt;/li&gt;&lt;li&gt;He fixes the bug in his branch and creates a PR&lt;/li&gt;&lt;li&gt;He claims the reward with his PR in the issue Alice has created&lt;/li&gt;&lt;li&gt;Alice has got notification from Nostrize extension&lt;/li&gt;&lt;li&gt;She tests the PR and approves the fix&lt;/li&gt;&lt;li&gt;She sends the reward using Nostrize extension&lt;/li&gt;&lt;/ol&gt;&lt;p&gt;&lt;/p&gt;" style="text;html=1;whiteSpace=wrap;overflow=hidden;rounded=0;" vertex="1" parent="1">
          <mxGeometry x="460" y="400" width="360" height="260" as="geometry" />
        </mxCell>
      </root>
    </mxGraphModel>
  </diagram>
</mxfile>
